<svg id="Illustration" xmlns="http://www.w3.org/2000/svg" viewBox="0 0 2651.39 1898.4"><defs><style>.cls-1{fill:#549df6;}.cls-1,.cls-10,.cls-11,.cls-12,.cls-14,.cls-15,.cls-19,.cls-2,.cls-20,.cls-22,.cls-23,.cls-24,.cls-25,.cls-3,.cls-6,.cls-8{fill-rule:evenodd;}.cls-2{fill:#333f60;}.cls-3,.cls-4{fill:#38c551;}.cls-14,.cls-5{fill:#fff;}.cls-6,.cls-7{fill:#61ea75;}.cls-8{fill:#0ebaa0;}.cls-9{fill:#16888c;}.cls-10{fill:#24d1b3;}.cls-11,.cls-18{fill:#0643a3;}.cls-12,.cls-13{fill:#2c7efe;}.cls-15{fill:#ea718b;}.cls-16{fill:#8183f1;}.cls-17,.cls-20{fill:#ffde6f;}.cls-19{fill:#ed835c;}.cls-21{fill:#f4a484;}.cls-22{fill:#ffbb9b;}.cls-23{fill:#060352;}.cls-24{fill:#0b1a32;}.cls-25{fill:#132c4f;}</style></defs><path class="cls-1" d="M369.08,1246.08C258.81,1328.82,201.42,1415.36,217.65,1494c41.16,197.9,534,269.26,1101.14,159.28,255.65-49.65,482.6-127.56,651-216.17,88.36,40,186.54,53.78,284.73,34.82,274.9-53.44,446.34-345.46,382.9-652.31-25.68-123.08-85-229.61-164.64-310,110.26-82.74,167.66-169.28,151.43-247.89-41.17-197.9-534-269.26-1100.77-159.28-255.65,49.3-482.59,127.22-651.39,216.17-88.36-40-186.54-53.78-284.73-34.82C312.44,336.91,141,628.94,204.82,936.13c25.3,122.74,84.58,229.61,164.26,309.95Z" transform="translate(-74.31 -50.8)"/><path class="cls-2" d="M1419,1824.67c663.15,0,1200.39,15.9,1200.39,35.11,0,10.26-155.2,19.54-401.58,26.16,82.85,6,129.52,12.59,129.52,19.87,0,23.85-508.66,43.39-1136.35,43.39S74.31,1929.66,74.31,1905.81c0-11.26,112.15-21.19,296.29-29.14-97-5-151.94-10.6-151.94-16.89,0-19.21,537.24-35.11,1200.38-35.11Z" transform="translate(-74.31 -50.8)"/><path class="cls-3" d="M798,375.06c135.13-17,291.13,33.33,415.67,147.52s188.14,265.19,182.94,401.34c-135.2,17-291.14-33.33-415.67-147.52S792.77,511.16,798,375.06Z" transform="translate(-74.31 -50.8)"/><path class="cls-4" d="M1398.93,926l-2,.25c-141,17.7-297.1-37.68-417.56-148.12S790.19,516.92,795.68,375l.08-2,2-.25c141-17.76,297,37.62,417.56,148.12S1404.43,782,1399,924ZM800.32,377.15c-4.71,140,63.31,288.45,182.25,397.51s272.67,163.92,411.79,147.17C1399,781.78,1331,633.32,1212.11,524.32S939.38,360.34,800.32,377.15Z" transform="translate(-74.31 -50.8)"/><path class="cls-5" d="M1398.38,925.52a2.36,2.36,0,0,1-3.33.14L796.44,376.79a2.36,2.36,0,1,1,3.19-3.47l598.61,548.87A2.36,2.36,0,0,1,1398.38,925.52Z" transform="translate(-74.31 -50.8)"/><path class="cls-5" d="M903.91,472.13a2.29,2.29,0,0,1-1.1.68,2.36,2.36,0,0,1-2.91-1.64l-27.37-98a2.36,2.36,0,0,1,4.55-1.27l27.36,98A2.34,2.34,0,0,1,903.91,472.13Z" transform="translate(-74.31 -50.8)"/><path class="cls-5" d="M979.82,541.73a2.35,2.35,0,0,1-1.81.77L822,538a2.36,2.36,0,1,1,.13-4.71l156.06,4.45a2.36,2.36,0,0,1,1.67,4Z" transform="translate(-74.31 -50.8)"/><path class="cls-5" d="M1060.06,615.3a2.34,2.34,0,0,1-1.63.77,2.36,2.36,0,0,1-2.47-2.25l-9-198.75a2.36,2.36,0,1,1,4.71-.22l9,198.75A2.37,2.37,0,0,1,1060.06,615.3Z" transform="translate(-74.31 -50.8)"/><path class="cls-5" d="M1184.71,729.6a2.36,2.36,0,0,1-1.87.76L921.23,715.91a2.36,2.36,0,0,1,.26-4.71l261.62,14.45a2.37,2.37,0,0,1,2.22,2.49A2.31,2.31,0,0,1,1184.71,729.6Z" transform="translate(-74.31 -50.8)"/><path class="cls-5" d="M1273.49,811a2.34,2.34,0,0,1-1.63.77,2.36,2.36,0,0,1-2.46-2.26l-10.38-238a2.36,2.36,0,0,1,4.72-.21l10.37,238A2.32,2.32,0,0,1,1273.49,811Z" transform="translate(-74.31 -50.8)"/><path class="cls-5" d="M1338,870.11a2.35,2.35,0,0,1-1.57.76l-195.19,13.58a2.36,2.36,0,1,1-.33-4.7l195.19-13.59a2.36,2.36,0,0,1,1.9,4Z" transform="translate(-74.31 -50.8)"/><path class="cls-6" d="M625.23,995C699.85,881,839.31,794.88,1007,774.06s323.89,28.61,424.21,120.82c-74.71,114-214.09,200.09-381.76,220.92s-324-28.6-424.2-120.82Z" transform="translate(-74.31 -50.8)"/><path class="cls-7" d="M1434.25,894.5l-1.09,1.67c-77.92,118.85-221.26,201.82-383.44,222S728.17,1092.9,623.63,996.71l-1.47-1.35,1.09-1.68c77.84-118.83,221.18-201.81,383.44-222S1328.16,797,1432.78,893.14ZM628.3,994.59c103.56,94.33,260.7,138.75,420.84,118.87s301.55-101.4,379-218.2c-103.64-94.32-260.78-138.74-420.83-118.86S705.64,877.8,628.3,994.59Z" transform="translate(-74.31 -50.8)"/><path class="cls-5" d="M1433.53,894.59a2.36,2.36,0,0,1-2,2.63l-806,100.1a2.36,2.36,0,0,1-.58-4.69l806-100.09A2.36,2.36,0,0,1,1433.53,894.59Z" transform="translate(-74.31 -50.8)"/><path class="cls-5" d="M767.78,977.27a2.36,2.36,0,0,1-3.33,2.43L672.07,937a2.36,2.36,0,0,1,2-4.29l92.37,42.69A2.38,2.38,0,0,1,767.78,977.27Z" transform="translate(-74.31 -50.8)"/><path class="cls-5" d="M870,964.58a2.35,2.35,0,0,1-.59,1.87l-104.54,116a2.36,2.36,0,1,1-3.5-3.16l104.54-116a2.36,2.36,0,0,1,4.09,1.29Z" transform="translate(-74.31 -50.8)"/><path class="cls-5" d="M978,951.16a2.36,2.36,0,0,1-3.79,2.15L817,831.36a2.36,2.36,0,0,1,2.89-3.73l157.19,122A2.36,2.36,0,0,1,978,951.16Z" transform="translate(-74.31 -50.8)"/><path class="cls-5" d="M1145.84,930.31a2.32,2.32,0,0,1-.63,1.92L964.64,1122.08a2.36,2.36,0,1,1-3.42-3.25L1141.79,929a2.37,2.37,0,0,1,3.34-.08A2.31,2.31,0,0,1,1145.84,930.31Z" transform="translate(-74.31 -50.8)"/><path class="cls-5" d="M1265.37,915.47a2.32,2.32,0,0,1-.48,1.74,2.36,2.36,0,0,1-3.31.41L1073.63,771.27a2.36,2.36,0,0,1,2.9-3.72l188,146.35A2.34,2.34,0,0,1,1265.37,915.47Z" transform="translate(-74.31 -50.8)"/><path class="cls-5" d="M1352.16,904.69a2.32,2.32,0,0,1-.44,1.69l-116.17,157.45a2.36,2.36,0,1,1-3.79-2.8l116.17-157.45a2.35,2.35,0,0,1,3.29-.5A2.3,2.3,0,0,1,1352.16,904.69Z" transform="translate(-74.31 -50.8)"/><path class="cls-8" d="M1564.11,742.11c54.34-21.32,138.86-108.8,159.15-195.25,6.4-26.47,28.1-117.82-25.24-129-29,15-42.76,86.68-86.93,45-15.27-26.6,69.49-32.5,72.25-62.13-1.71-40.52-43-105.27-89.73-106.89-17.49,10.67-30.27,125.92-56.75,122.31-24-9.63,21.3-70.11,32-105.08,7-36.41-49.9-57.56-83.16-73.94,11.85,46,12.61,85.7-4.11,86.92-40.32-1.9,16.68-64.31,4.11-86.92-48.26-23.77-51.37-49.17-82-44-26.39,26.75-37.92,39.8-46.21,74.57-16,75.94,101.75,109.33,84.34,129.15-21.9,9.18-71.91-66.51-85.6-61.81-29.81,5-45.44,65.23-28.37,85.48,25.25,30,126.36,54.12,121.12,74.9-6.39,26.23-110.74-52.26-148.71-25.42-29.12,25-30.27,80.36-24.75,117.33-2.42,51.45,170.34-9,176.38,8.57-11.12,47.35-186.71,12-159.45,84.26,18,37.54,55.89,55.13,93.88,70.17,58.59,23,139.52,8.1,177.83-8.14ZM1372.58,506.7c5.89-2.68,13.1.49,16,7.05s.51,14.11-5.43,16.73-13.15-.55-16.09-7.11-.45-14.05,5.49-16.67Zm153.11-17.52c-6.11,18.77,20.35,7.17,25.75-2.2,8.84-10.14,19-27,11.69-40.18-17-1.88-29.06,19.08-37.44,42.38Zm41,72.16c-11.6-26.46,41.7-52.42,55-43.78,9.32,11.34-42,59.89-55,43.78Zm-107.11,86.82c-10,4.17,4.34,11.11,10.13,10,7.41.1,18.17-1.71,21-9.48-5.23-7.79-18.34-5.37-31.1-.48Zm-45.08-243.35c12-2.08,24.78,8.54,31.81,17.64-3.26,8.51-15.46,2.8-23.45-.13-8.9-2.7-15.72-13.21-8.36-17.51Z" transform="translate(-74.31 -50.8)"/><path class="cls-9" d="M1581,928.68a4.87,4.87,0,0,1-1.18-2.88c-15.38-233.78-68.56-449.39-162.59-659.17a4.88,4.88,0,1,1,8.9-4,1905,1905,0,0,1,116,342.17,1966.64,1966.64,0,0,1,47.45,320.35,4.88,4.88,0,0,1-8.56,3.52Z" transform="translate(-74.31 -50.8)"/><path class="cls-9" d="M1480.81,426.57a4.88,4.88,0,0,1,.25-6.66c32.64-32.44,45.44-72.25,38-118.33a4.88,4.88,0,1,1,9.63-1.54c3.78,23.52,2.56,45.89-3.64,66.47-6.67,22.16-19.17,42.45-37.15,60.32a4.89,4.89,0,0,1-6.91,0Z" transform="translate(-74.31 -50.8)"/><path class="cls-9" d="M1540.12,637.63a4.88,4.88,0,0,1,2.42-7.91c78.48-21,130.19-76.33,149.56-160a4.88,4.88,0,0,1,9.51,2.21c-20.23,87.38-74.36,145.2-156.54,167.2A4.89,4.89,0,0,1,1540.12,637.63Z" transform="translate(-74.31 -50.8)"/><path class="cls-9" d="M1321.75,538.07a4.88,4.88,0,0,1,6-7.5c60.26,32.54,115.41,33.34,190.35,2.76a4.88,4.88,0,1,1,3.69,9c-37.57,15.33-68.83,22.68-98.37,23.13-33.72.51-66.53-8.1-100.31-26.34A4.88,4.88,0,0,1,1321.75,538.07Z" transform="translate(-74.31 -50.8)"/><path class="cls-9" d="M1337.48,681.73a4.88,4.88,0,0,1,6-7.52c104,55.11,166.75,36.38,209.83,13.91a4.88,4.88,0,1,1,4.52,8.65c-45.21,23.58-110.94,43.3-218.92-13.94A4.78,4.78,0,0,1,1337.48,681.73Z" transform="translate(-74.31 -50.8)"/><path class="cls-10" d="M1691.84,777.13c54.74,20.12,176,10.74,248.56-40.62,22.28-15.51,99.14-69.54,66.7-113.3-31.71-8-89.5,36.58-94.94-23.91,6.18-30,73.52,21.77,95.31,1.36,25.52-31.45,37.59-107.3,3.7-139.46-20.18-3.66-106.17,74.1-123.66,53.88-11.59-23.13,62.46-38.27,93.67-57.44,29.3-22.63.81-76.16-13.21-110.52-21.64,42.29-47.43,72.53-60.75,62.34-28.94-28.14,55.2-37.06,60.75-62.34-20.33-49.75-5.86-70.79-32.16-87.34-37.6,2.51-54.79,4.59-84.08,25.19-62.36,46.31,3.64,149.3-22.49,152.6-22.52-7.61-9.77-97.5-23.17-103.06-25.5-16-77.21,18.66-77.85,45.23-1,39.2,58.71,124.23,40.94,136.37-22.09,15.34-48.17-112.63-94.45-117.67-38.4-.58-75.9,40.08-96.3,71.4-35.94,37,133.5,106.23,126.32,123.38-39.66,28.09-147.64-114.82-175.21-42.59-11.38,40,5.28,78.31,23.74,114.69,28.61,56.09,99,98.56,138.58,111.81Zm12.7-303.21c6.16,2,9.47,9.09,7.33,15.95s-9,10.85-15.17,8.88-9.47-9.09-7.33-16,8.94-10.78,15.17-8.87Zm126.17,88.5c-17,9.93,10.52,18.85,20.74,15.4,13.37-1.75,32.19-7.58,35.4-22.27-11.42-12.73-34.34-5.11-56.14,6.87Zm-17.13,81.15c8.91-27.42,66-11.59,70.25,3.73-.54,14.69-71.09,17-70.25-3.73Zm-137.7-6c-10.27-3.5-4.16,11.18.92,14.2,5.54,5,14.77,10.7,22,6.81,1.24-9.3-10.17-16.15-23-21Zm127.64-212c10.37,6.42,12.86,22.81,12.07,34.28-8,4.19-13.45-8.18-17.46-15.59-4.8-7.93-3-20.28,5.39-18.69Z" transform="translate(-74.31 -50.8)"/><path class="cls-9" d="M1581.85,931.24a4.88,4.88,0,0,1-.18-6.19c143.51-185.22,246.7-381.89,315.49-601.24a4.88,4.88,0,1,1,9.31,2.92,1908,1908,0,0,1-140.16,333A1969.18,1969.18,0,0,1,1589.39,931a4.89,4.89,0,0,1-6.85.87A4.77,4.77,0,0,1,1581.85,931.24Z" transform="translate(-74.31 -50.8)"/><path class="cls-9" d="M1839.81,489a4.76,4.76,0,0,1-1.19-2.92,4.88,4.88,0,0,1,4.59-5.15c46-2.66,82-24,107-63.39a4.88,4.88,0,0,1,8.24,5.24c-26.85,42.2-65.44,65-114.71,67.89A4.84,4.84,0,0,1,1839.81,489Z" transform="translate(-74.31 -50.8)"/><path class="cls-9" d="M1744.26,686.26a4.88,4.88,0,0,1,5.86-7.57c72.71,36.31,148.12,29.23,218.07-20.49a4.88,4.88,0,1,1,5.66,7.95c-73.08,52-151.95,59.3-228.09,21.27A4.94,4.94,0,0,1,1744.26,686.26Z" transform="translate(-74.31 -50.8)"/><path class="cls-9" d="M1684.74,533c-16.27-18.68-29-41-38.74-67.51a4.88,4.88,0,0,1,9.17-3.35c23.51,64.32,64.25,101.49,140.63,128.3a4.88,4.88,0,0,1-3.23,9.21c-38.28-13.44-66.55-28.66-89-47.9A183.64,183.64,0,0,1,1684.74,533Z" transform="translate(-74.31 -50.8)"/><path class="cls-9" d="M1616.26,678.68c-19.49-22.38-37.93-52.94-53.72-95.17a4.88,4.88,0,0,1,9.14-3.42c41.19,110.16,100.63,137.74,147.82,149.46a4.88,4.88,0,0,1-2.35,9.48C1685.91,731.27,1649.57,716.93,1616.26,678.68Z" transform="translate(-74.31 -50.8)"/><path class="cls-11" d="M1473.54,1537.43l393.13-290.13,227.87-168.25a53.3,53.3,0,0,0-43.06-21.86H895.26a53.8,53.8,0,0,0-43.06,21.86l227.87,168.25Z" transform="translate(-74.31 -50.8)"/><path class="cls-12" d="M1473.54,621.33l393.13,290.13,227.87,168.25a53,53,0,0,1-43.06,21.53H895.26a53.5,53.5,0,0,1-43.06-21.53l227.87-168.25Z" transform="translate(-74.31 -50.8)"/><rect class="cls-5" x="909.39" y="714.94" width="979.69" height="986.32"/><path class="cls-12" d="M2094.54,1079.05a52.52,52.52,0,0,1,10.93,32.46v717.38a54,54,0,0,1-54,54H895.26a54.21,54.21,0,0,1-54-54V1111.51a52.58,52.58,0,0,1,10.93-32.46l227.87,168.25,393.47,290.13,393.13-290.13Z" transform="translate(-74.31 -50.8)"/><path class="cls-11" d="M1473.54,1402l-393.47,290.47-228.2,168.25a53.81,53.81,0,0,0,43.39,22.19H2051.48a53.93,53.93,0,0,0,43.72-22.19l-228.53-168.25Z" transform="translate(-74.31 -50.8)"/><path class="cls-13" d="M1676.2,1067.06q0,37.95-10.3,67.66T1637.6,1185a119.66,119.66,0,0,1-42.94,31.44,133.87,133.87,0,0,1-54,10.84q-19.51,0-30.68-10.3t-12.47-27.21q-26.46,37.52-69.17,37.51a80.63,80.63,0,0,1-32.53-6.5,74.63,74.63,0,0,1-25.8-18.43,84.62,84.62,0,0,1-16.92-29q-6.07-17-6.07-38.06a159.63,159.63,0,0,1,10.3-56.81,179.94,179.94,0,0,1,26.89-48.36,144,144,0,0,1,37.3-33.83q20.7-12.79,42.17-12.79,48.36,0,70.69,28.84l5.21-22.34h40.11L1545,1140.79a183.33,183.33,0,0,0-4.45,21.69,125.68,125.68,0,0,0-1.19,16.26q0,15.83,12.14,15.83a73.82,73.82,0,0,0,35.56-9,88.83,88.83,0,0,0,29.17-25.8q12.46-16.8,19.62-40.45t7.16-53.56q0-30.57-11.71-56.59a138.27,138.27,0,0,0-32.64-45.33q-20.93-19.29-50.3-30.14t-65.16-10.84q-41.43,0-76.22,15.83a183.13,183.13,0,0,0-59.74,42.94,194.29,194.29,0,0,0-38.71,63.42,215.09,215.09,0,0,0-13.77,76.88q0,40.77,13.12,72.32A143.39,143.39,0,0,0,1346,1247.7q24.93,21.9,60.82,33.18t81.42,11.27q57,0,94.55-17.35l16.48,27.54q-49,21.48-110.81,21.47-52.9,0-95-14t-71.34-40.12a173.56,173.56,0,0,1-44.88-63.54q-15.62-37.41-15.62-84.24,0-98.67,62.89-165,63.52-65.28,159.38-65.28,44,0,79.58,13.34t60.6,36.86a161.7,161.7,0,0,1,38.6,55.63Q1676.2,1029.55,1676.2,1067.06Zm-149.62-21.9q-18.43-28-59.85-28-15.4,0-29.49,10.41a103.31,103.31,0,0,0-24.94,27,149,149,0,0,0-17.35,37.51,140.56,140.56,0,0,0-6.5,42q0,60.5,47.92,60.5a54.6,54.6,0,0,0,23.31-5.31,77.44,77.44,0,0,0,21.14-14.75,98.19,98.19,0,0,0,17.24-22.77,109.39,109.39,0,0,0,11.17-29.81Z" transform="translate(-74.31 -50.8)"/><path class="cls-12" d="M2125.73,122.64h199.95a30.58,30.58,0,0,1,30.53,30.52v148a30.58,30.58,0,0,1-30.53,30.52H2173.06L2133.75,365V331.65h-8a30.58,30.58,0,0,1-30.53-30.52v-148a30.58,30.58,0,0,1,30.53-30.52Z" transform="translate(-74.31 -50.8)"/><path class="cls-14" d="M2189.62,218.87c9.57-7.5,23-9.83,32.59-19.66,11.9-14,17.08-49.67,23.8-60.53,4.14-6.47,11.12-3.11,14,1,11.9,19.66-5.43,41.13-3.36,59.5,4.91,5.95,40.09-5.43,52,6.47,12.16,16.29,3.88,38-3.1,53-5.44,11.9-13.45,22.25-22.77,27.16-15,8-32.59,7.51-47.59,4.4-14.23-4.4-26.13-11.9-45.53-13.19v-58.2Z" transform="translate(-74.31 -50.8)"/><path class="cls-14" d="M2145.13,214H2170a8.45,8.45,0,0,1,8.54,8.54v49.67a8.61,8.61,0,0,1-8.54,8.53h-24.83a8.61,8.61,0,0,1-8.54-8.53V222.49a8.45,8.45,0,0,1,8.54-8.54Z" transform="translate(-74.31 -50.8)"/><path class="cls-12" d="M320,738.86H440.24a18.4,18.4,0,0,1,18.37,18.36v89a18.4,18.4,0,0,1-18.37,18.36H348.43l-23.66,20.07V864.6H320a18.39,18.39,0,0,1-18.36-18.36v-89A18.39,18.39,0,0,1,320,738.86Z" transform="translate(-74.31 -50.8)"/><path class="cls-14" d="M358.39,796.75c5.76-4.51,13.85-5.91,19.61-11.83,7.15-8.4,10.27-29.88,14.31-36.41,2.49-3.89,6.69-1.87,8.41.62,7.15,11.83-3.27,24.74-2,35.79,3,3.58,24.12-3.26,31.28,3.89,7.32,9.81,2.34,22.88-1.87,31.91-3.26,7.15-8.09,13.38-13.69,16.34-9,4.82-19.61,4.51-28.63,2.64-8.56-2.64-15.72-7.16-27.39-7.94v-35Z" transform="translate(-74.31 -50.8)"/><path class="cls-14" d="M331.62,793.79h14.94a5.09,5.09,0,0,1,5.14,5.14v29.88a5.18,5.18,0,0,1-5.14,5.13H331.62a5.17,5.17,0,0,1-5.13-5.13V798.93a5.08,5.08,0,0,1,5.13-5.14Z" transform="translate(-74.31 -50.8)"/><path class="cls-15" d="M685.37,436H476.05a31.8,31.8,0,0,0-31.79,31.79V622.43a31.8,31.8,0,0,0,31.79,31.8H636l41.07,35.11V654.23h8.28a31.81,31.81,0,0,0,31.8-31.8V467.76A31.81,31.81,0,0,0,685.37,436Z" transform="translate(-74.31 -50.8)"/><path class="cls-5" d="M580.71,500.22c-8.61-16.89-17.22-25.5-34.11-25.5a34.35,34.35,0,0,0-34.45,34.11c0,34.45,34.45,68.56,68.56,103,34.45-34.45,68.56-68.56,68.56-103a34.06,34.06,0,0,0-34.11-34.11c-17.23,0-25.84,8.61-34.45,25.5Z" transform="translate(-74.31 -50.8)"/><path class="cls-15" d="M1844.42,97.37H1739.25a16,16,0,0,0-16,16v77.71a16,16,0,0,0,16,16h80.37l20.64,17.64V207h4.16a16,16,0,0,0,16-16V113.35a16,16,0,0,0-16-16Z" transform="translate(-74.31 -50.8)"/><path class="cls-5" d="M1791.83,129.65c-4.32-8.48-8.65-12.81-17.14-12.81a17.25,17.25,0,0,0-17.3,17.14c0,17.31,17.3,34.45,34.44,51.75,17.31-17.3,34.45-34.44,34.45-51.75a17.12,17.12,0,0,0-17.14-17.14c-8.66,0-13,4.33-17.31,12.81Z" transform="translate(-74.31 -50.8)"/><rect class="cls-16" x="2235.63" y="898.03" width="151.61" height="911.86"/><path class="cls-17" d="M1924,644.42h650.09c83.44,0,151.61,70,151.61,155.66v300.3H1772.2V800.08c0-85.67,68.35-155.66,151.79-155.66Z" transform="translate(-74.31 -50.8)"/><path class="cls-18" d="M1924,644.42h86.35c83.45,0,151.62,70,151.62,155.66v300.3H1772.2V800.08c0-85.67,68.35-155.66,151.79-155.66Z" transform="translate(-74.31 -50.8)"/><path class="cls-17" d="M1924,1555.6h86.35c83.45,0,151.62-70,151.62-155.66v-300.3H1772.2v300.3c0,85.67,68.35,155.66,151.79,155.66Z" transform="translate(-74.31 -50.8)"/><path class="cls-16" d="M1928.18,667.19H2006c75.08,0,136.53,63.08,136.53,140.17v270.25H1791.83V807.36c0-77.09,61.27-140.17,136.35-140.17Z" transform="translate(-74.31 -50.8)"/><path class="cls-16" d="M2438.65,877.91c37.26,0,67.62-31.17,67.62-69.43s-30.36-69.62-67.62-69.62c-37.45,0-67.81,31.36-67.81,69.62s30.36,69.43,67.81,69.43Z" transform="translate(-74.31 -50.8)"/><rect class="cls-16" x="2336.89" y="426.02" width="54.9" height="331.66"/><rect class="cls-17" x="2336.89" y="407.17" width="180.52" height="89.03"/><path class="cls-18" d="M2438.65,840.77c17.27,0,31.45-14.56,31.45-32.29,0-17.92-14.18-32.29-31.45-32.29-17.46,0-31.64,14.37-31.64,32.29,0,17.73,14.18,32.29,31.64,32.29Z" transform="translate(-74.31 -50.8)"/><polygon class="cls-19" points="755.71 1302.04 774.96 1278.56 814.08 1287.86 796.16 1307 755.71 1302.04"/><path class="cls-20" d="M487.33,1319.5l32.18-61.42c110.49,23,220.87,37,331.29,69l-5.3,30c-124.92-5.44-238.84-25-358.17-37.54Z" transform="translate(-74.31 -50.8)"/><path class="cls-21" d="M588.11,1261.79c-4.94,6.19-6.11,13.07-9.16,19.6a71.72,71.72,0,0,1-29.31,10.1c-7.86-9.46-24.24-30.18-18.23-45.27,13.5-10.26,16.52-33.12,24.79-49.68q15.94,32.64,31.91,65.25Z" transform="translate(-74.31 -50.8)"/><path class="cls-21" d="M549.59,1291.61h.06A72.29,72.29,0,0,0,579,1281.49l0,0v0c1-2.18,1.85-4.44,2.64-6.62,1.59-4.35,3.23-8.85,6.51-13l0,0,0-.07-15.9-32.48-16-32.76-.1-.21-.11.2a159,159,0,0,0-7.1,18c-4.27,12.21-8.68,24.84-17.65,31.66l0,0v0c-6.3,15.83,12.18,38.07,18.25,45.38Zm29.27-10.29a72.07,72.07,0,0,1-29.17,10c-6.09-7.33-24.4-29.41-18.19-45.08,9-6.86,13.43-19.52,17.7-31.75a159.25,159.25,0,0,1,7-17.74q8,16.29,15.93,32.55T588,1261.78c-3.28,4.12-4.92,8.62-6.5,13C580.69,1276.91,579.87,1279.15,578.86,1281.32Z" transform="translate(-74.31 -50.8)"/><path class="cls-22" d="M560.31,1155.33c28.09,9,55.94,17.77,83.8,26.55,1.75,18.81-27.15,83.24-48.23,93.14-26.57,12.39-53.52-15-54.24-37.23-1.72-21.15,6.45-68.68,18.67-82.46Z" transform="translate(-74.31 -50.8)"/><path class="cls-23" d="M579,1183.22c25.89-12.56,39.9,22.45,55.65,25,14.87-2.9,83.64-13,84.75-42.4-.18-18.28-48.45-35.92-67.58-39.75a177.11,177.11,0,0,0-47.84-4.27c-15.84,1.68-28.08,9.94-34.18,23.74-5.71-8.34-33.29-3.11-37.8,3.35-17.18,17.51,11.31,39.44,10.39,65.87,11.26,3.93,31.62-31,36.61-31.56Z" transform="translate(-74.31 -50.8)"/><path class="cls-22" d="M554.87,1209.48c17.09,2.91,19.62-3.64,15.24-17.17-.48-5.92-4.75-12.65-11.68-9-5.15,4-4.58,19-3.56,26.17Z" transform="translate(-74.31 -50.8)"/><path class="cls-19" d="M885.8,1335.09c17.39-16.13,18-48.39,42.39-48.65,4.78,1.76-13.46,71.87-48.45,72.27-21.34.06-7.42-11.37,6.06-23.62Z" transform="translate(-74.31 -50.8)"/><polygon class="cls-19" points="743.35 1360.2 767.2 1338.45 792.71 1347.9 782.34 1372.4 743.35 1360.2"/><path class="cls-19" d="M867,1398.7c20.33-12.5,11.78-52.78,35.94-48.51,4.45,2.62-5.36,89-38.36,77.15-9.91-3.76-13.25-19,2.42-28.64Z" transform="translate(-74.31 -50.8)"/><path class="cls-24" d="M432.4,1848l18.29,19.32c23.79,17,74.46,12.25,67.69,36.65-13.11,9-85.59-9.09-128.36-13.73-1.26-4.61,4.7-26.6,20-31.76Z" transform="translate(-74.31 -50.8)"/><path class="cls-19" d="M432.64,1822l34.48,11c-4.87,10.48-9.9,20.75-14.95,31.19-15.67,7.47-23.48-4.88-35.32-7.34Z" transform="translate(-74.31 -50.8)"/><path class="cls-25" d="M234.23,1846.94l14.64,21.79c20.67,20.85,71.38,24.33,60.75,47.13-14.78,6.72-83-22.89-124.54-34.27-.47-4.83,9.21-25.43,25.16-28.1Z" transform="translate(-74.31 -50.8)"/><path class="cls-19" d="M238.93,1821.44l32.19,16.48c-6.76,9.41-13.52,18.82-20.1,28.27-16.87,4.7-22.42-8.72-33.73-13.1Z" transform="translate(-74.31 -50.8)"/><path class="cls-24" d="M380.1,1528.94l86.15-35.78c36.19,49.37,116.32,128.82,108.17,148.22L473.23,1851.89l-59.08-18.12,63.52-188.46Z" transform="translate(-74.31 -50.8)"/><path class="cls-25" d="M431.66,1435.84c-27.75,6.43-55.5,12.86-83.27,19.47-32.38,56.09-20.29,121.13-30.64,181.84L218.41,1828.6,271.85,1852,384,1669l82.23-175.82Z" transform="translate(-74.31 -50.8)"/><path class="cls-20" d="M593.3,1277.34l-53.7-26.13c-16.5-2.74-25.58-.5-37.87,5-36.91,19.8-119,130.74-153.34,199.09,39.29,12.62,56.49,42.36,117.86,37.85q65.84-93.71,131.46-187.42c2.34-8.92-.52-19.48-4.41-28.4Z" transform="translate(-74.31 -50.8)"/><path class="cls-20" d="M490.14,1299.34c-2.82-37.44,22.83-52.29,46.25-52.36,102,47.3,206.17,86,306.31,141.93l-12.5,28c-120.33-33.53-226.75-78.49-340.06-117.54Z" transform="translate(-74.31 -50.8)"/></svg>