<svg id="Layer_1" data-name="Layer 1" xmlns="http://www.w3.org/2000/svg" viewBox="0 0 147.2 129.11"><defs><style>.cls-1,.cls-2{fill:#fff;}.cls-1,.cls-3{stroke:#fff;stroke-miterlimit:10;}.cls-1{stroke-width:3px;}.cls-3{fill:none;}</style></defs><polygon class="cls-1" points="73.6 102.78 69.56 95.79 65.52 88.79 65.52 88.79 61.48 81.8 57.44 74.8 57.44 74.8 53.4 67.8 49.36 60.8 45.32 53.8 45.32 53.8 41.28 46.81 37.24 39.81 61.48 39.81 65.52 32.81 33.2 32.81 29.16 25.81 25.12 18.82 73.6 18.82 73.77 18.52 77.64 11.82 69.56 11.82 13 11.82 17.04 18.82 21.08 25.81 25.12 32.81 25.12 32.81 29.16 39.81 33.2 46.81 37.24 53.8 37.24 53.8 41.28 60.8 45.32 67.8 49.36 74.8 49.36 74.8 53.4 81.8 57.44 88.79 61.48 95.79 61.48 95.79 65.52 102.79 69.56 109.78 73.6 116.78 77.64 109.78 81.68 102.79 77.64 95.79 73.6 102.78"/><polyline class="cls-1" points="105.92 60.8 105.92 60.8 109.96 53.8 114 46.81 118.04 39.81 122.08 32.81 122.08 32.81 126.12 25.81 130.16 18.82 134.2 11.82 109.96 11.82 109.96 11.82 109.96 11.82 85.72 11.82 85.72 11.82 81.68 18.81 81.68 18.82 77.64 25.81 73.6 32.81 73.6 32.81 69.56 39.81 77.64 39.81 81.68 32.81 85.72 25.81 89.76 18.82 122.08 18.82 118.04 25.81 114 32.81 114 32.81 109.96 39.81 109.96 39.81 105.92 46.81 105.92 46.81 101.88 53.8 97.84 60.8 97.84 60.8 93.8 67.8 93.8 67.8 93.8 67.8 89.76 74.8 85.72 81.79 77.64 67.8 77.64 67.8 73.6 60.8 69.56 53.8 69.56 53.8 85.72 53.8 81.68 60.8 89.5 60.8 89.76 60.8 97.84 46.81 57.44 46.81 61.48 53.8 61.48 53.8 65.52 60.8 69.56 67.8 73.6 74.8 77.64 81.8 77.64 81.8 81.68 88.79 85.72 95.79 85.72 95.79 93.8 81.79"/><polyline class="cls-1" points="93.8 81.8 93.8 81.79 97.84 74.8 105.92 60.8 101.88 67.8"/><path class="cls-2" d="M12.28,20.36c0-.07.05-.11.15-.11h3.26c.1,0,.16,0,.16.12v.24a.1.1,0,0,1,0,.08.14.14,0,0,1-.11,0H13V22h2.16a.2.2,0,0,1,.11,0s0,0,0,.09v.25a.1.1,0,0,1,0,.08.16.16,0,0,1-.11,0H13v1.4c0,.07-.06.1-.16.1h-.36c-.1,0-.15,0-.15-.1Z" transform="translate(-1.73 -16.74)"/><path class="cls-2" d="M25.1,20.25c.11,0,.16,0,.16.12v.24a.09.09,0,0,1,0,.08.15.15,0,0,1-.12,0H22.31v1H24.5l.11,0a.1.1,0,0,1,0,.09v.26a.09.09,0,0,1,0,.07.16.16,0,0,1-.12,0H22.31v1.22h2.8c.11,0,.16,0,.16.12v.25c0,.07-.05.11-.15.11H21.8c-.1,0-.16,0-.16-.1V20.36c0-.07.06-.11.16-.11Z" transform="translate(-1.73 -16.74)"/><path class="cls-2" d="M34.21,23.45a.17.17,0,0,1,.1,0,.11.11,0,0,1,0,.09v.25a.09.09,0,0,1,0,.08.2.2,0,0,1-.11,0H31.27c-.1,0-.15,0-.15-.11V20.36a.12.12,0,0,1,0-.08.21.21,0,0,1,.12,0h.36a.2.2,0,0,1,.11,0,.09.09,0,0,1,0,.08v3.09Z" transform="translate(-1.73 -16.74)"/><path class="cls-2" d="M40.12,20.36a.09.09,0,0,1,0-.08.16.16,0,0,1,.11,0h.36a.2.2,0,0,1,.11,0,.09.09,0,0,1,0,.08v3.46c0,.07-.06.11-.16.11h-.36c-.1,0-.15,0-.15-.11Z" transform="translate(-1.73 -16.74)"/><path class="cls-2" d="M50.7,23.82a.12.12,0,0,1,0,.08s0,0-.1,0h-.51l-.11,0-.1-.07L48.66,22.5l-1.25,1.34-.09.07-.11,0H46.7c-.06,0-.09,0-.1,0s0,0,0-.08l1.64-1.73-.44-.46-.43-.45-.4-.43-.36-.38s-.06-.08,0-.1a.33.33,0,0,1,.14,0h.42l.14,0,.12.09,1.24,1.32,1.26-1.32a.47.47,0,0,1,.12-.09l.14,0h.42l.14,0s0,.06-.05.1l-.36.38-.41.43-.43.45c-.14.16-.29.31-.43.46Z" transform="translate(-1.73 -16.74)"/><path class="cls-2" d="M74.47,22.41c0-.07,0-.11.15-.11H75a.18.18,0,0,1,.11,0,.08.08,0,0,1,0,.08v1.11a.13.13,0,0,1,0,.06l-.06,0,0,0a3.82,3.82,0,0,1-.72.26,3.73,3.73,0,0,1-.84.09,4,4,0,0,1-.7-.07,4.19,4.19,0,0,1-.63-.19,3,3,0,0,1-.53-.3,1.87,1.87,0,0,1-.41-.38,1.7,1.7,0,0,1-.26-.45,1.25,1.25,0,0,1-.1-.51,1.24,1.24,0,0,1,.1-.5,1.7,1.7,0,0,1,.26-.45,2.13,2.13,0,0,1,.41-.38,2.35,2.35,0,0,1,.54-.3,3,3,0,0,1,.62-.19,3.29,3.29,0,0,1,.71-.07,3.59,3.59,0,0,1,.81.09,3,3,0,0,1,.74.27l.06,0a.07.07,0,0,1,0,.12l-.19.22a.17.17,0,0,1-.12,0h0l-.07,0a2.16,2.16,0,0,0-.54-.2,2.56,2.56,0,0,0-1.41,0,2.18,2.18,0,0,0-.63.31,1.41,1.41,0,0,0-.42.46,1,1,0,0,0-.15.53,1.06,1.06,0,0,0,.15.55,1.49,1.49,0,0,0,.42.45,2.74,2.74,0,0,0,.62.3,2.68,2.68,0,0,0,.76.1,2.18,2.18,0,0,0,.5-.05l.51-.14Z" transform="translate(-1.73 -16.74)"/><path class="cls-2" d="M81.56,23.84a.23.23,0,0,1-.07.07l-.11,0H81c-.11,0-.16,0-.16-.09v-.05h0l2-3.44v0l0,0,0,0h.4l.05,0,0,0,0,0,2,3.44v0h0c0,.06,0,.09-.16.09h-.37l-.11,0a.23.23,0,0,1-.07-.07l-.38-.68H81.93c-.08.14-.16.28-.22.4A2.83,2.83,0,0,0,81.56,23.84Zm.64-1.16h1.89L83.15,21Z" transform="translate(-1.73 -16.74)"/><path class="cls-2" d="M90.81,20.37a.16.16,0,0,1,0-.09s0,0,.09,0h.65l0,0,0,.06,1.23,1.54h0l1.26-1.56.07-.06.09,0h.57c.05,0,.08,0,.08,0s0,0,0,.07l-.42.5-.42.51-.42.51-.43.5v1.43c0,.08-.06.12-.16.12h-.37c-.09,0-.14,0-.14-.12V22.39Z" transform="translate(-1.73 -16.74)"/><path class="cls-2" d="M101,23.84a.23.23,0,0,1-.07.07l-.11,0h-.37c-.1,0-.16,0-.16-.09s0,0,0,0v0h0l2-3.44,0,0,0,0,0,0h.4a.06.06,0,0,1,.05,0l0,0,0,0,2,3.44v0h0c0,.06,0,.09-.16.09h-.36l-.12,0a.23.23,0,0,1-.07-.07l-.38-.68H101.4l-.22.4A2.83,2.83,0,0,0,101,23.84Zm.65-1.16h1.88l-.93-1.7Z" transform="translate(-1.73 -16.74)"/><path class="cls-2" d="M114.29,20.3a.12.12,0,0,1,.1-.05h.45a.29.29,0,0,1,.12,0,.14.14,0,0,1,0,.06v0l-.79,1.37L115,23.2l1.61-2.86a.18.18,0,0,1,.18-.09h.36l.12,0a.09.09,0,0,1,0,.06v0l-2,3.48v0l0,0-.06,0a.11.11,0,0,1-.08,0h-.23a.21.21,0,0,1-.13,0s-.05,0-.05-.06l-.89-1.53L113,23.83a.19.19,0,0,1-.06.07.17.17,0,0,1-.1,0h-.24a.21.21,0,0,1-.12,0l0-.06-2-3.48h0v0c0-.06,0-.08.13-.08h.39l.09,0a.3.3,0,0,1,.08.08l1.61,2.85Z" transform="translate(-1.73 -16.74)"/><path class="cls-2" d="M125.6,20.2a3.26,3.26,0,0,1,.7.07,2.49,2.49,0,0,1,.62.19,2.77,2.77,0,0,1,.54.29,2.19,2.19,0,0,1,.41.39,2.07,2.07,0,0,1,.27.45,1.44,1.44,0,0,1,.09.51,1.43,1.43,0,0,1-.09.5,1.5,1.5,0,0,1-.27.45,1.87,1.87,0,0,1-.41.38,2.5,2.5,0,0,1-.53.3,3.57,3.57,0,0,1-2,.19,3.59,3.59,0,0,1-.63-.19,3,3,0,0,1-.53-.3,1.87,1.87,0,0,1-.41-.38,1.74,1.74,0,0,1-.27-.45,1.44,1.44,0,0,1-.09-.51,1.43,1.43,0,0,1,.09-.5,1.74,1.74,0,0,1,.27-.45,2.19,2.19,0,0,1,.41-.39,2.77,2.77,0,0,1,.54-.29,3,3,0,0,1,.62-.19A3.29,3.29,0,0,1,125.6,20.2Zm-2,1.89a1.16,1.16,0,0,0,.07.37,1.68,1.68,0,0,0,.2.34,2.16,2.16,0,0,0,.31.29,3,3,0,0,0,.4.22,2.62,2.62,0,0,0,1,.19,3,3,0,0,0,.52-.05,2.89,2.89,0,0,0,.47-.14,3,3,0,0,0,.4-.22,1.66,1.66,0,0,0,.3-.29,1.08,1.08,0,0,0,.2-.34.94.94,0,0,0,.07-.37,1.06,1.06,0,0,0-.15-.55,1.62,1.62,0,0,0-.42-.45,2,2,0,0,0-.63-.3,2.33,2.33,0,0,0-.76-.12,2.18,2.18,0,0,0-.52.06,2.15,2.15,0,0,0-.47.14,1.71,1.71,0,0,0-.4.22,1.34,1.34,0,0,0-.51.62A1.22,1.22,0,0,0,123.62,22.09Z" transform="translate(-1.73 -16.74)"/><path class="cls-2" d="M138,23.93a.21.21,0,0,1-.13-.05l-3-2.91v2.85c0,.07-.06.11-.16.11h-.35c-.1,0-.15,0-.15-.11V20.36a.09.09,0,0,1,0-.08.18.18,0,0,1,.11,0h.46a.25.25,0,0,1,.15.05l2.94,2.81V20.34q0-.09.15-.09h.35a.2.2,0,0,1,.11,0,.07.07,0,0,1,.05.08v3.46c0,.07-.05.11-.16.11Z" transform="translate(-1.73 -16.74)"/><polygon class="cls-3" points="73.6 128.1 0.86 0.5 146.34 0.5 73.6 128.1"/></svg>