<svg id="Layer_1" data-name="Layer 1" xmlns="http://www.w3.org/2000/svg" xmlns:xlink="http://www.w3.org/1999/xlink" viewBox="0 0 245.5 204.03"><defs><style>.cls-1{fill:url(#linear-gradient);}.cls-2{fill:#fff;}.cls-3{isolation:isolate;}</style><linearGradient id="linear-gradient" x1="-12.47" y1="-44.39" x2="228.09" y2="-43.51" gradientTransform="translate(0 146)" gradientUnits="userSpaceOnUse"><stop offset="0" stop-color="#e98a98"/><stop offset="1" stop-color="#624392"/></linearGradient></defs><path class="cls-1" d="M187.64,69.9c5.45-2,11.59.71,13.06,6.35a102,102,0,1,1-25.91-45.7c4.08,4.15,3.29,10.83-1.26,14.46s-11.15,2.82-15.33-1.23a80.9,80.9,0,1,0,22.62,39.91C179.5,78,182.19,72,187.64,69.9Z" transform="translate(41.47 -0.01)"/><path class="cls-2" d="M124.52,96a6.34,6.34,0,1,0-6.59,6.07h.25a6.14,6.14,0,0,0,6.34-5.94Zm-4.25,0a2.09,2.09,0,1,1-2.09-2.13,2,2,0,0,1,2.09,1.9A1.77,1.77,0,0,1,120.27,96ZM138,90.27h-5.51L114.15,115h5.51Zm-10.37,19a6.34,6.34,0,1,0,6.59-6.07H134a6.14,6.14,0,0,0-6.32,6v.09Zm4.25,0a2.09,2.09,0,1,1,2.09,2.12,2,2,0,0,1-2.07-1.92.89.89,0,0,1,0-.23Z" transform="translate(41.47 -0.01)"/><g class="cls-3"><path class="cls-2" d="M67.39,115.87,77.68,97.08a5.05,5.05,0,0,1,1.73-1.8,5.82,5.82,0,0,1-2,.65H68.65l.75-6H89.13l-14,26Z" transform="translate(41.47 -0.01)"/><path class="cls-2" d="M87.33,114.9l.68-5.62a12.93,12.93,0,0,0,2.09,1,10.11,10.11,0,0,0,3.21.54,6.32,6.32,0,0,0,3.67-1,3.05,3.05,0,0,0,1.47-2.58,2.61,2.61,0,0,0-1.26-2.28,5.86,5.86,0,0,0-3.31-.85,15.66,15.66,0,0,0-4.32.79l1.8-14.94h16.09l-.72,5.84h-9l-.5,4.39c.48-.1.89-.17,1.24-.22a8.85,8.85,0,0,1,1-.07,7.57,7.57,0,0,1,5.15,1.75,5.65,5.65,0,0,1,2,4.48,9.34,9.34,0,0,1-3.27,7.43,12.87,12.87,0,0,1-8.72,2.83,20,20,0,0,1-4.42-.54A19.4,19.4,0,0,1,87.33,114.9Z" transform="translate(41.47 -0.01)"/><text x="41.47" y="-0.01"/></g></svg>