<?xml version="1.0" encoding="utf-8"?>
<!-- Generator: Adobe Illustrator 26.0.1, SVG Export Plug-In . SVG Version: 6.00 Build 0)  -->
<svg version="1.1" id="Layer_1" xmlns="http://www.w3.org/2000/svg" xmlns:xlink="http://www.w3.org/1999/xlink" x="0px" y="0px"
	 viewBox="0 0 204 204" style="enable-background:new 0 0 204 204;" xml:space="preserve">
<style type="text/css">
	.st0{display:none;}
	.st1{fill:url(#SVGID_1_);}
	.st2{fill:#FFFFFF;}
	.st3{fill:none;}
</style>
<rect x="0" class="st0" width="204" height="204"/>
<linearGradient id="SVGID_1_" gradientUnits="userSpaceOnUse" x1="-12.4701" y1="-44.3943" x2="228.0899" y2="-43.5143" gradientTransform="matrix(1 0 0 1 0 145.9971)">
	<stop  offset="0" style="stop-color:#E98A98"/>
	<stop  offset="1" style="stop-color:#624392"/>
</linearGradient>
<path class="st1" d="M187.6,69.9c5.4-2,11.6,0.7,13.1,6.3c14.2,54.5-18.4,110.2-72.9,124.5S17.5,182.3,3.3,127.8S21.7,17.5,76.2,3.3
	c35.4-9.2,72.9,1.2,98.5,27.2c4.1,4.2,3.3,10.8-1.3,14.5s-11.1,2.8-15.3-1.2c-32.1-31-83.4-30.1-114.4,2s-30.1,83.4,2,114.4
	s83.4,30.1,114.4-2c19-19.7,26.8-47.8,20.6-74.5C179.5,78,182.2,72,187.6,69.9z"/>
<path class="st2" d="M124.5,96c0.1-3.5-2.6-6.5-6.1-6.6c-3.5-0.1-6.5,2.6-6.6,6.1c-0.1,3.5,2.6,6.5,6.1,6.6c0.1,0,0.2,0,0.3,0
	c3.4,0.1,6.2-2.5,6.3-5.9C124.5,96.1,124.5,96,124.5,96z M120.3,96c0,1.2-1,2.1-2.1,2c-1.2,0-2.1-1-2-2.1c0-1.1,1-2,2.1-2.1
	c1.1-0.1,2,0.8,2.1,1.9C120.3,95.8,120.3,95.9,120.3,96z M138,90.3h-5.5L114.2,115h5.5L138,90.3z M127.6,109.3
	c-0.1,3.5,2.6,6.5,6.1,6.6s6.5-2.6,6.6-6.1c0.1-3.5-2.6-6.5-6.1-6.6c-0.1,0-0.2,0-0.3,0c-3.4-0.1-6.2,2.6-6.3,6
	C127.7,109.2,127.7,109.2,127.6,109.3L127.6,109.3z M131.9,109.3c0-1.2,1-2.1,2.1-2.1c1.2,0,2.1,1,2.1,2.1c0,1.1-0.9,2.1-2.1,2.1
	c-1.1,0-2-0.8-2.1-1.9C131.9,109.4,131.9,109.3,131.9,109.3L131.9,109.3z"/>
<rect x="-41.5" y="44.3" class="st3" width="131.9" height="70.6"/>
<g>
	<path class="st2" d="M65.9,112.8l4.2-3.2c1.2-1,2.4-2.1,3.4-3.5l-0.7,0c-1.9,0-3.6-0.6-4.9-1.9c-1.3-1.3-2-3-2-5
		c0-2.9,1-5.4,3.1-7.5c2.1-2.1,4.6-3.1,7.6-3.1c2.5,0,4.6,0.8,6.2,2.4c1.6,1.6,2.4,3.7,2.4,6.2c0,1-0.1,2.1-0.4,3.1
		c-0.3,1-0.7,2.1-1.3,3.3c-1.1,2.2-2.5,4.2-4.4,6.1c-1.2,1.2-2.7,2.4-4.4,3.7l-2.9,2L65.9,112.8z M75.2,101.5c1,0,1.9-0.4,2.7-1.1
		c0.6-1.1,0.9-2,0.9-2.9c0-0.9-0.2-1.7-0.7-2.3c-0.5-0.6-1.2-0.9-2-0.9c-1,0-1.9,0.4-2.7,1.2c-0.7,0.8-1.1,1.8-1.1,3
		c0,0.9,0.3,1.7,0.8,2.2C73.6,101.2,74.3,101.5,75.2,101.5z"/>
	<path class="st2" d="M88.6,107.6l-0.1-1.5c0-4,0.5-7.2,1.5-9.6c1-2.4,2.4-4.3,4.2-5.7c1.8-1.4,3.8-2.1,6-2.1c2.5,0,4.5,0.9,6,2.7
		s2.2,4.3,2.2,7.3c0,5-1.1,9-3.2,12.1c-2.1,3.1-4.9,4.6-8.4,4.6c-2.1,0-3.9-0.7-5.4-2C89.9,112,89,110.1,88.6,107.6z M96.3,98.7
		c-0.2,1.2-0.4,2.4-0.6,3.5c-0.1,1.2-0.2,2.2-0.2,3.2v0.4c0,2.2,0.7,3.3,2,3.3c1.4,0,2.4-1.3,3-4c0.5-2.7,0.8-5,0.8-6.8
		c0-2.3-0.7-3.4-2-3.4C97.9,94.9,96.9,96.1,96.3,98.7z"/>
</g>
</svg>
